# MagicaVoxel @ ephtracy

# material
mtllib grass_block_01.mtl
usemtl palette

# normals
vn -1 0 0
vn 1 0 0
vn 0 0 1
vn 0 0 -1
vn 0 -1 0
vn 0 1 0

# texcoords
vt 0.306641 0.5
vt 0.537109 0.5
vt 0.908203 0.5

# verts
v -22.5 0 22.5
v -22.5 0 -22.5
v -22.5 4 10.5
v -22.5 4 8.5
v -22.5 4 -8.5
v -22.5 4 -13.5
v -22.5 5 13.5
v -22.5 5 10.5
v -22.5 5 8.5
v -22.5 5 6.5
v -22.5 5 -7.5
v -22.5 5 -8.5
v -22.5 5 -13.5
v -22.5 5 -14.5
v -22.5 5 -16.5
v -22.5 5 -21.5
v -22.5 6 15.5
v -22.5 6 13.5
v -22.5 6 6.5
v -22.5 6 5.5
v -22.5 6 -5.5
v -22.5 6 -7.5
v -22.5 6 -14.5
v -22.5 6 -16.5
v -22.5 6 -21.5
v -22.5 6 -22.5
v -22.5 7 22.5
v -22.5 7 15.5
v -22.5 7 5.5
v -22.5 7 -5.5
v -22.5 11 22.5
v -22.5 11 -22.5
v 22.5 0 22.5
v 22.5 0 -22.5
v 22.5 3 21.5
v 22.5 3 20.5
v 22.5 3 3.5
v 22.5 3 0.5
v 22.5 4 22.5
v 22.5 4 21.5
v 22.5 4 20.5
v 22.5 4 16.5
v 22.5 4 4.5
v 22.5 4 3.5
v 22.5 4 0.5
v 22.5 4 -4.5
v 22.5 4 -17.5
v 22.5 4 -18.5
v 22.5 5 16.5
v 22.5 5 14.5
v 22.5 5 6.5
v 22.5 5 4.5
v 22.5 5 -4.5
v 22.5 5 -6.5
v 22.5 5 -16.5
v 22.5 5 -17.5
v 22.5 5 -18.5
v 22.5 5 -19.5
v 22.5 6 8.5
v 22.5 6 6.5
v 22.5 6 -14.5
v 22.5 6 -16.5
v 22.5 7 14.5
v 22.5 7 8.5
v 22.5 7 -6.5
v 22.5 7 -14.5
v 22.5 7 -19.5
v 22.5 7 -22.5
v 22.5 11 22.5
v 22.5 11 -22.5
v -22.5 0 22.5
v -22.5 7 22.5
v -22.5 11 22.5
v -16.5 6 22.5
v -16.5 7 22.5
v -15.5 5 22.5
v -15.5 6 22.5
v -13.5 4 22.5
v -13.5 5 22.5
v -7.5 3 22.5
v -7.5 4 22.5
v -2.5 3 22.5
v -2.5 4 22.5
v -1.5 4 22.5
v -1.5 5 22.5
v 0.5 5 22.5
v 0.5 6 22.5
v 1.5 6 22.5
v 1.5 7 22.5
v 16.5 6 22.5
v 16.5 7 22.5
v 18.5 5 22.5
v 18.5 6 22.5
v 20.5 4 22.5
v 20.5 5 22.5
v 22.5 0 22.5
v 22.5 4 22.5
v 22.5 11 22.5
v -22.5 0 -22.5
v -22.5 6 -22.5
v -22.5 11 -22.5
v -21.5 6 -22.5
v -21.5 7 -22.5
v -15.5 6 -22.5
v -15.5 7 -22.5
v -14.5 4 -22.5
v -14.5 6 -22.5
v -10.5 4 -22.5
v -10.5 5 -22.5
v -7.5 5 -22.5
v -7.5 6 -22.5
v -5.5 6 -22.5
v -5.5 7 -22.5
v 12.5 6 -22.5
v 12.5 7 -22.5
v 13.5 5 -22.5
v 13.5 6 -22.5
v 14.5 4 -22.5
v 14.5 5 -22.5
v 15.5 3 -22.5
v 15.5 4 -22.5
v 19.5 3 -22.5
v 19.5 4 -22.5
v 20.5 4 -22.5
v 20.5 5 -22.5
v 21.5 5 -22.5
v 21.5 7 -22.5
v 22.5 0 -22.5
v 22.5 7 -22.5
v 22.5 11 -22.5
v -22.5 0 22.5
v 22.5 0 22.5
v -22.5 0 -22.5
v 22.5 0 -22.5
v -22.5 11 22.5
v 22.5 11 22.5
v -22.5 11 -22.5
v 22.5 11 -22.5

# faces
f 3/2/1 2/2/1 1/2/1
f 4/2/1 2/2/1 3/2/1
f 5/2/1 2/2/1 4/2/1
f 6/2/1 2/2/1 5/2/1
f 7/2/1 3/2/1 1/2/1
f 8/3/1 4/3/1 3/3/1
f 8/2/1 3/2/1 7/2/1
f 9/2/1 5/2/1 4/2/1
f 9/3/1 4/3/1 8/3/1
f 10/2/1 5/2/1 9/2/1
f 11/2/1 5/2/1 10/2/1
f 12/3/1 6/3/1 5/3/1
f 12/2/1 5/2/1 11/2/1
f 13/2/1 2/2/1 6/2/1
f 13/3/1 6/3/1 12/3/1
f 14/2/1 2/2/1 13/2/1
f 15/2/1 2/2/1 14/2/1
f 16/2/1 2/2/1 15/2/1
f 17/2/1 7/2/1 1/2/1
f 18/3/1 8/3/1 7/3/1
f 18/2/1 7/2/1 17/2/1
f 18/3/1 9/3/1 8/3/1
f 18/3/1 10/3/1 9/3/1
f 19/2/1 11/2/1 10/2/1
f 19/3/1 10/3/1 18/3/1
f 20/2/1 11/2/1 19/2/1
f 21/2/1 11/2/1 20/2/1
f 22/3/1 12/3/1 11/3/1
f 22/2/1 11/2/1 21/2/1
f 22/3/1 13/3/1 12/3/1
f 22/3/1 14/3/1 13/3/1
f 23/2/1 15/2/1 14/2/1
f 23/3/1 14/3/1 22/3/1
f 24/3/1 16/3/1 15/3/1
f 24/2/1 15/2/1 23/2/1
f 25/2/1 2/2/1 16/2/1
f 25/3/1 16/3/1 24/3/1
f 26/2/1 2/2/1 25/2/1
f 27/2/1 17/2/1 1/2/1
f 28/3/1 18/3/1 17/3/1
f 28/2/1 17/2/1 27/2/1
f 28/3/1 20/3/1 19/3/1
f 28/3/1 19/3/1 18/3/1
f 29/2/1 21/2/1 20/2/1
f 29/3/1 20/3/1 28/3/1
f 30/3/1 24/3/1 23/3/1
f 30/2/1 21/2/1 29/2/1
f 30/3/1 23/3/1 22/3/1
f 30/3/1 25/3/1 24/3/1
f 30/3/1 26/3/1 25/3/1
f 30/3/1 22/3/1 21/3/1
f 31/3/1 28/3/1 27/3/1
f 31/3/1 29/3/1 28/3/1
f 31/3/1 30/3/1 29/3/1
f 32/3/1 26/3/1 30/3/1
f 32/3/1 30/3/1 31/3/1
f 33/2/2 34/2/2 35/2/2
f 35/2/2 34/2/2 36/2/2
f 36/2/2 34/2/2 37/2/2
f 37/2/2 34/2/2 38/2/2
f 33/2/2 35/2/2 39/2/2
f 35/3/2 36/3/2 40/3/2
f 39/2/2 35/2/2 40/2/2
f 36/2/2 37/2/2 41/2/2
f 40/3/2 36/3/2 41/3/2
f 41/2/2 37/2/2 42/2/2
f 42/2/2 37/2/2 43/2/2
f 37/3/2 38/3/2 44/3/2
f 43/2/2 37/2/2 44/2/2
f 38/2/2 34/2/2 45/2/2
f 44/3/2 38/3/2 45/3/2
f 45/2/2 34/2/2 46/2/2
f 46/2/2 34/2/2 47/2/2
f 47/2/2 34/2/2 48/2/2
f 39/3/2 40/3/2 49/3/2
f 42/2/2 43/2/2 49/2/2
f 40/3/2 41/3/2 49/3/2
f 41/3/2 42/3/2 49/3/2
f 49/2/2 43/2/2 50/2/2
f 50/2/2 43/2/2 51/2/2
f 43/3/2 44/3/2 52/3/2
f 51/2/2 43/2/2 52/2/2
f 45/3/2 46/3/2 52/3/2
f 44/3/2 45/3/2 52/3/2
f 46/2/2 47/2/2 53/2/2
f 52/3/2 46/3/2 53/3/2
f 53/2/2 47/2/2 54/2/2
f 54/2/2 47/2/2 55/2/2
f 47/3/2 48/3/2 56/3/2
f 55/2/2 47/2/2 56/2/2
f 48/2/2 34/2/2 57/2/2
f 56/3/2 48/3/2 57/3/2
f 57/2/2 34/2/2 58/2/2
f 50/2/2 51/2/2 59/2/2
f 51/3/2 52/3/2 60/3/2
f 59/2/2 51/2/2 60/2/2
f 52/3/2 53/3/2 60/3/2
f 53/3/2 54/3/2 60/3/2
f 54/2/2 55/2/2 61/2/2
f 55/3/2 56/3/2 62/3/2
f 61/2/2 55/2/2 62/2/2
f 57/3/2 58/3/2 62/3/2
f 56/3/2 57/3/2 62/3/2
f 50/2/2 59/2/2 63/2/2
f 49/3/2 50/3/2 63/3/2
f 59/3/2 60/3/2 64/3/2
f 63/2/2 59/2/2 64/2/2
f 54/2/2 61/2/2 65/2/2
f 64/3/2 60/3/2 65/3/2
f 60/3/2 54/3/2 65/3/2
f 61/3/2 62/3/2 66/3/2
f 65/2/2 61/2/2 66/2/2
f 58/2/2 34/2/2 67/2/2
f 66/3/2 62/3/2 67/3/2
f 62/3/2 58/3/2 67/3/2
f 67/2/2 34/2/2 68/2/2
f 65/3/2 66/3/2 69/3/2
f 63/3/2 64/3/2 69/3/2
f 67/3/2 68/3/2 69/3/2
f 66/3/2 67/3/2 69/3/2
f 64/3/2 65/3/2 69/3/2
f 39/3/2 49/3/2 69/3/2
f 49/3/2 63/3/2 69/3/2
f 69/3/2 68/3/2 70/3/2
f 74/2/3 72/2/3 71/2/3
f 75/3/3 73/3/3 72/3/3
f 75/2/3 72/2/3 74/2/3
f 76/2/3 74/2/3 71/2/3
f 77/3/3 75/3/3 74/3/3
f 77/2/3 74/2/3 76/2/3
f 78/2/3 76/2/3 71/2/3
f 79/3/3 77/3/3 76/3/3
f 79/2/3 76/2/3 78/2/3
f 80/2/3 78/2/3 71/2/3
f 81/3/3 79/3/3 78/3/3
f 81/2/3 78/2/3 80/2/3
f 82/2/3 80/2/3 71/2/3
f 82/3/3 81/3/3 80/3/3
f 83/3/3 79/3/3 81/3/3
f 83/3/3 81/3/3 82/3/3
f 84/2/3 83/2/3 82/2/3
f 84/3/3 79/3/3 83/3/3
f 85/3/3 77/3/3 79/3/3
f 85/3/3 79/3/3 84/3/3
f 86/2/3 85/2/3 84/2/3
f 86/3/3 77/3/3 85/3/3
f 87/3/3 75/3/3 77/3/3
f 87/3/3 77/3/3 86/3/3
f 88/2/3 87/2/3 86/2/3
f 88/3/3 75/3/3 87/3/3
f 89/3/3 73/3/3 75/3/3
f 89/3/3 75/3/3 88/3/3
f 90/2/3 88/2/3 86/2/3
f 90/2/3 89/2/3 88/2/3
f 91/3/3 73/3/3 89/3/3
f 91/2/3 89/2/3 90/2/3
f 92/2/3 90/2/3 86/2/3
f 92/2/3 86/2/3 84/2/3
f 93/3/3 91/3/3 90/3/3
f 93/2/3 90/2/3 92/2/3
f 94/2/3 92/2/3 84/2/3
f 94/2/3 84/2/3 82/2/3
f 95/3/3 93/3/3 92/3/3
f 95/2/3 92/2/3 94/2/3
f 96/2/3 94/2/3 82/2/3
f 96/2/3 82/2/3 71/2/3
f 97/3/3 95/3/3 94/3/3
f 97/2/3 94/2/3 96/2/3
f 98/3/3 73/3/3 91/3/3
f 98/3/3 95/3/3 97/3/3
f 98/3/3 91/3/3 93/3/3
f 98/3/3 93/3/3 95/3/3
f 99/2/4 100/2/4 102/2/4
f 100/3/4 101/3/4 102/3/4
f 102/3/4 101/3/4 103/3/4
f 99/2/4 102/2/4 104/2/4
f 102/2/4 103/2/4 104/2/4
f 103/3/4 101/3/4 105/3/4
f 104/2/4 103/2/4 105/2/4
f 99/2/4 104/2/4 106/2/4
f 104/3/4 105/3/4 107/3/4
f 106/2/4 104/2/4 107/2/4
f 99/2/4 106/2/4 108/2/4
f 106/3/4 107/3/4 108/3/4
f 108/3/4 107/3/4 109/3/4
f 108/2/4 109/2/4 110/2/4
f 109/3/4 107/3/4 110/3/4
f 107/3/4 105/3/4 111/3/4
f 110/3/4 107/3/4 111/3/4
f 110/2/4 111/2/4 112/2/4
f 111/3/4 105/3/4 112/3/4
f 105/3/4 101/3/4 113/3/4
f 112/3/4 105/3/4 113/3/4
f 110/2/4 112/2/4 114/2/4
f 112/2/4 113/2/4 114/2/4
f 113/3/4 101/3/4 115/3/4
f 114/2/4 113/2/4 115/2/4
f 110/2/4 114/2/4 116/2/4
f 108/2/4 110/2/4 116/2/4
f 114/3/4 115/3/4 117/3/4
f 116/2/4 114/2/4 117/2/4
f 108/2/4 116/2/4 118/2/4
f 99/2/4 108/2/4 118/2/4
f 116/3/4 117/3/4 119/3/4
f 118/2/4 116/2/4 119/2/4
f 99/2/4 118/2/4 120/2/4
f 118/3/4 119/3/4 121/3/4
f 120/2/4 118/2/4 121/2/4
f 99/2/4 120/2/4 122/2/4
f 120/3/4 121/3/4 122/3/4
f 121/3/4 119/3/4 123/3/4
f 122/3/4 121/3/4 123/3/4
f 122/2/4 123/2/4 124/2/4
f 123/3/4 119/3/4 124/3/4
f 119/3/4 117/3/4 125/3/4
f 124/3/4 119/3/4 125/3/4
f 124/2/4 125/2/4 126/2/4
f 125/3/4 117/3/4 126/3/4
f 115/3/4 101/3/4 127/3/4
f 126/3/4 117/3/4 127/3/4
f 117/3/4 115/3/4 127/3/4
f 124/2/4 126/2/4 128/2/4
f 99/2/4 122/2/4 128/2/4
f 126/2/4 127/2/4 128/2/4
f 122/2/4 124/2/4 128/2/4
f 127/3/4 101/3/4 129/3/4
f 128/2/4 127/2/4 129/2/4
f 129/3/4 101/3/4 130/3/4
f 133/2/5 132/2/5 131/2/5
f 134/2/5 132/2/5 133/2/5
f 135/3/6 136/3/6 137/3/6
f 137/3/6 136/3/6 138/3/6
